<svg  version="1.1" id="Layer_1" xmlns="http://www.w3.org/2000/svg" xmlns:xlink="http://www.w3.org/1999/xlink" 
	 viewBox="0 0 512.335 512.335" xml:space="preserve">
<g transform="translate(1 1)">
	<g>
		<path style="fill:#FFE100;" d="M306.367,7.868c0,42.667-51.2,42.667-51.2,42.667s-51.2,0-51.2-42.667l-42.667,8.533
			c0,0,6.827,12.8,11.947,33.28c10.24,39.253,26.453,76.8,47.787,111.787l0,0h34.133h34.133l0,0
			c21.333-34.987,38.4-71.68,47.787-111.787c5.12-19.627,11.947-33.28,11.947-33.28L306.367,7.868z"/>
		<path style="fill:#FFE100;" d="M391.701,502.801c0,0,0-14.507,0-17.067c-5.12-148.48-46.08-273.067-93.867-324.267h-76.8
			C222.741,240.828,260.287,414.055,391.701,502.801"/>
	</g>
	<g>
		<path style="fill:#FFA800;" d="M306.367,7.868c0,0.853,0,2.56,0,3.413l25.6,5.12c0,0-6.827,12.8-11.947,33.28
			c-10.24,39.253-26.453,76.8-47.787,111.787h17.067c21.333-34.987,38.4-71.68,47.787-111.787
			c5.12-19.627,11.947-33.28,11.947-33.28L306.367,7.868z"/>
		<path style="fill:#FFA800;" d="M391.701,485.735c-5.12-148.48-46.08-273.067-93.867-324.267h-17.067
			c47.787,51.2,88.747,175.787,93.867,324.267c0,0.853,0,2.56,0,4.267c5.12,4.267,11.093,8.533,17.067,12.8
			C391.701,502.801,391.701,488.295,391.701,485.735"/>
	</g>
	<path style="fill:#FFE100;" d="M221.034,161.468h-8.533c-47.787,51.2-88.747,175.787-93.013,324.267
		c0,8.533,5.973,15.36,14.507,17.067c76.8-3.413,137.387-64.853,139.093-141.653C234.687,286.055,221.887,207.548,221.034,161.468"
		/>
	<path style="fill:#FDCC00;" d="M272.234,361.148c-1.707,76.8-61.44,138.24-137.387,141.653h256.853
		C337.087,465.255,297.834,414.055,272.234,361.148C272.234,360.295,272.234,360.295,272.234,361.148"/>
	<g>
		<path style="fill:#FFFFFF;" d="M203.967,7.868c0,0.853,0,2.56,0,3.413l-25.6,5.12c0,0,6.827,12.8,11.947,33.28
			c10.24,39.253,26.453,76.8,47.787,111.787h-17.067c-21.333-34.987-38.4-71.68-47.787-111.787
			c-5.12-19.627-11.947-33.28-11.947-33.28L203.967,7.868z"/>
		<path style="fill:#FFFFFF;" d="M118.634,485.735c5.12-148.48,46.08-273.067,93.867-324.267h17.067
			c-47.787,51.2-88.747,175.787-93.867,324.267c0,0.853,0,2.56,0,4.267c-5.12,4.267-11.093,8.533-17.067,12.8
			C118.634,502.801,118.634,488.295,118.634,485.735"/>
	</g>
	<path d="M289.301,170.001h-68.267c-2.56,0-5.973-1.707-6.827-4.267c-23.893-36.693-40.107-75.093-49.493-113.493
		c-5.12-18.773-11.093-31.573-11.093-31.573c-0.853-2.56-0.853-5.12,0-7.68s3.413-4.267,5.973-4.267l42.667-8.533
		c2.56-0.853,5.12,0,6.827,1.707c2.56,1.707,3.413,3.413,3.413,5.973c0,34.133,40.96,34.133,42.667,34.133
		c1.707,0,42.667-0.853,42.667-34.133c0-2.56,0.853-5.12,3.413-6.827c1.707-1.707,4.267-2.56,6.827-1.707l42.667,8.533
		c2.56,0.853,5.12,2.56,5.973,4.267c0.853,1.707,0.853,5.12,0,7.68c0,0-5.973,12.8-11.093,31.573
		c-9.387,38.4-26.453,76.8-49.493,113.493C295.274,168.295,291.861,170.001,289.301,170.001z M226.154,152.935h58.88
		c20.48-34.133,35.84-69.12,44.373-104.96c2.56-10.24,5.12-18.773,7.68-24.747l-23.04-4.267
		c-5.973,31.573-40.107,40.107-58.88,40.107s-52.907-8.533-58.88-40.96l-23.04,5.12c2.56,5.973,5.12,14.507,7.68,24.747
		C190.314,83.815,204.821,118.801,226.154,152.935z"/>
	<path d="M391.701,511.335c-1.707,0-3.413-0.853-5.12-1.707c-133.973-90.453-172.373-267.093-174.08-348.16
		c0-2.56,0.853-4.267,2.56-5.973c1.707-1.707,3.413-2.56,5.973-2.56h76.8c2.56,0,4.267,0.853,5.973,2.56
		c53.76,58.027,92.16,190.293,96.427,330.24c0,2.56,0,17.067,0,17.067c0,3.413-1.707,5.973-4.267,7.68
		C394.261,511.335,393.407,511.335,391.701,511.335z M229.567,170.001c3.413,77.653,39.253,230.4,153.6,316.587l0,0
		c-5.12-153.6-47.787-268.8-88.747-315.733h-64.853V170.001z"/>
	<path d="M133.141,511.335c-0.853,0-0.853,0-1.707,0c-12.8-2.56-21.333-13.653-21.333-25.6
		c4.267-139.947,42.667-273.067,95.573-329.387c1.707-1.707,4.267-2.56,5.973-2.56h8.533c4.267,0,8.533,3.413,8.533,8.533
		c0.853,46.933,14.507,123.733,50.347,195.413c0.853,0.853,0.853,2.56,0.853,4.267C279.061,442.215,214.207,507.921,133.141,511.335
		L133.141,511.335z M213.354,174.268c-40.107,49.493-80.213,162.133-85.333,312.32c0,4.267,2.56,7.68,5.973,8.533
		c70.827-3.413,127.147-60.587,129.707-131.413C230.421,294.588,215.914,222.908,213.354,174.268z"/>
	<path d="M391.701,511.335H134.847c-4.267,0-8.533-3.413-8.533-8.533s3.413-8.533,7.68-8.533
		c70.827-3.413,127.147-61.44,129.707-132.267c-0.853-3.413,0.853-7.68,4.267-9.387c4.267-1.707,9.387,0,11.093,3.413l0,0l0,0l0,0
		l0,0c29.867,59.733,69.12,106.667,116.907,139.093c3.413,1.707,4.267,5.973,3.413,9.387
		C398.527,508.775,395.114,511.335,391.701,511.335z M197.994,494.268h168.107c-34.133-27.307-64-63.147-87.893-104.96
		C267.967,434.535,238.101,472.935,197.994,494.268z"/>
</g>
</svg>